<?xml version="1.0" encoding="utf-8"?>
<!-- Generator: Adobe Illustrator 23.0.0, SVG Export Plug-In . SVG Version: 6.00 Build 0)  -->
<svg version="1.1" xmlns="http://www.w3.org/2000/svg" xmlns:xlink="http://www.w3.org/1999/xlink" x="0px" y="0px"
	 viewBox="0 0 553 379" enable-background="new 0 0 553 379" xml:space="preserve">
<g id="Capa_2">
	<rect x="0.5" y="0.5" fill="#FFFFFF" stroke="#9C9CC7" stroke-miterlimit="10" width="552" height="378"/>
</g>
<g id="Capa_1">
	<g>
		<g>
			<path fill="#FFFFFF" d="M283.45,335.51c-93.35,0-186.65,0-279.91,0c0-80.68,0-161.32,0-241.9c93.35,0,186.65,0,279.91,0
				C283.45,174.29,283.45,254.93,283.45,335.51z M156.49,308.32c-0.18-0.82-0.36-1.64-0.54-2.46c-6.8,0.77-13.59,1.8-20.42,2.28
				c-31.18,2.15-62.29,2.72-93.18-3.7c-7.65-1.59-12.35-6-12.8-13.95c-0.54-9.54-0.13-19.15-0.13-29.33
				c9.01,3.66,17.84,5.08,17.22,16.86c-0.06,1.21,2.77,3.19,4.57,3.8c17.33,5.81,35.01,4.19,52.61,1.84
				c1.87-0.25,3.55-3.53,4.97-5.66c1.92-2.89,2.96-8,5.33-8.72c10.63-3.22,21.6-5.21,33.31-7.84c0,4.44,0,7.93,0,11.42
				c0.37-0.02,0.75-0.04,1.12-0.06c0.75-4.39,1.49-8.77,2.43-14.26c1.51,2.06,2.22,3.01,3.57,4.85c-0.41-3.17-0.67-5.13-0.95-7.28
				c-27.93,11.04-56.65,13.57-85.61,12.32c-10.72-0.46-21.43-4.1-31.9-7.18c-6.98-2.05-10.06-7.22-6.84-13.79
				c19.22,0.57,37.87,2.16,56.44,1.38c19.84-0.84,39.6-3.82,59.37-6.08c5.2-0.59,8.21-3.38,8.63-9.63
				c2.22-33.45,4.91-66.86,7.19-100.3c0.54-7.99-2.28-10.87-9.98-10.86c-5.47,0.01-10.97,0.57-16.4,1.32
				c-20.62,2.83-41.54,4.04-61.06,12.77c-4.5,2.01-9.4,3.04-14.12,4.53c5.57-4.22,11.35-8.16,17.65-9.54
				c21.65-4.74,43.53-8.32,65.22-12.86c17.82-3.73,32.27,3.86,45.86,14.04c12.75,9.56,24.99,19.87,37.82,30.14
				c-19.82,10.94-18.64,35.23-30.25,51.63c3.83-18.56,9.79-36.18,20.73-52.5c-15.64-10.84-31.06-21.53-47.17-32.7
				c-7.74,41.3-12.54,108.27-8.69,123.35c1.67-24.31,3-47.37,4.93-70.37c0.98-11.62,2.79-23.18,4.77-34.66
				c0.51-2.96,1.35-8.41,6.64-5.62c11.45,6.05,22.7,12.51,32.66,18.04c-5.59,13.63-11.21,25.19-15.12,37.35
				c-5.83,18.12-10.07,36.86-23.7,51.53c7.18-3.2,14.94-6.2,19.49-11.96c7.45-9.43,16.62-12.89,27.33-13.48
				c9.11-0.51,18.26-0.1,27.4-0.1c-0.01-0.26-0.02-0.52-0.03-0.78c-12.68-4.35-25.37-8.69-38.86-13.31
				c3.19-7.58,5.69-14.34,8.8-20.77c6.57-13.58,13.46-16.63,27.43-12.09c6.65,2.16,13.09,5.02,19.62,7.56
				c-26.9-21.59-54.16-42.39-81.57-62.98c-9.65-7.25-20.48-10.52-32.49-8.57c-14.26,2.31-28.74,3.64-42.76,7.03
				c-17.81,4.31-35.88,8.47-51.48,19.46c-3.65,2.57-7.4,5.37-11.51,6.74c-8.11,2.71-13.81,7.69-17.78,15.51
				c-6.86,13.52-3.38,27.7-4.26,41.46c6.61,0,11.99,0,17.55,0c0-8.79,0-17.03,0-25.43c-3.15-0.33-6.02-0.63-9.43-0.99
				c0.66-10.15,3.1-18.56,13.23-24.43c-1.67,7.54-3.04,13.71-4.48,20.26c1.51-0.18,1.9-0.14,1.94-0.25c0.78-1.9,1.79-3.76,2.24-5.75
				c2.84-12.55,10.66-19.31,22.47-22.05c9.96-2.32,19.7-5.69,29.7-7.75c16.73-3.46,33.55-6.48,50.41-9.11
				c3.37-0.53,7.11,1.48,12.5,2.75c-30.64,16.05-31.71,21.19-30.18,63.99c6.77,0,13.52,0,20.55,0c0-10.07,0-19.33,0-28.98
				c-3.72-0.26-7.09-0.5-10.41-0.74c-0.8-13.15,7.2-23.22,19.55-24.3c0,2.33,0.17,4.62-0.03,6.88c-2.25,26.15-4.81,52.27-6.7,78.45
				c-0.58,8.05-4.01,11.73-11.28,12.46c-14.38,1.46-28.73,3.75-43.14,4.23c-23,0.76-46.12,2.43-69.28-3.12
				c0,19.01-0.68,37.38,0.26,55.66c0.55,10.67,6.22,15.22,16.7,16.56c8.66,1.1,17.36,2.24,26.06,2.44
				c22.9,0.53,45.82,0.97,68.71,0.54C143.51,313.31,149.99,310.11,156.49,308.32z"/>
			<path fill="#1C1C1C" stroke="#0000FF" stroke-miterlimit="10" d="M156.49,308.32c-6.51,1.79-12.99,4.99-19.52,5.11
				c-22.89,0.43-45.81-0.01-68.71-0.54c-8.7-0.2-17.41-1.34-26.06-2.44c-10.48-1.34-16.15-5.89-16.7-16.56
				c-0.94-18.28-0.26-36.65-0.26-55.66c23.16,5.55,46.28,3.89,69.28,3.12c14.41-0.48,28.76-2.77,43.14-4.23
				c7.26-0.74,10.69-4.42,11.28-12.46c1.89-26.18,4.45-52.3,6.7-78.45c0.19-2.26,0.03-4.55,0.03-6.88
				c-12.35,1.07-20.35,11.15-19.55,24.3c3.31,0.23,6.69,0.47,10.41,0.74c0,9.65,0,18.91,0,28.98c-7.03,0-13.78,0-20.55,0
				c-1.53-42.79-0.46-47.93,30.18-63.99c-5.39-1.27-9.12-3.28-12.5-2.75c-16.86,2.64-33.69,5.66-50.41,9.11
				c-10,2.06-19.74,5.43-29.7,7.75c-11.81,2.75-19.63,9.5-22.47,22.05c-0.45,1.99-1.45,3.84-2.24,5.75
				c-0.05,0.11-0.43,0.07-1.94,0.25c1.45-6.54,2.82-12.72,4.48-20.26c-10.13,5.87-12.57,14.28-13.23,24.43
				c3.41,0.36,6.28,0.66,9.43,0.99c0,8.4,0,16.64,0,25.43c-5.56,0-10.95,0-17.55,0c0.89-13.75-2.59-27.94,4.26-41.46
				c3.97-7.82,9.67-12.8,17.78-15.51c4.11-1.38,7.87-4.17,11.51-6.74c15.6-10.99,33.67-15.16,51.48-19.46
				c14.02-3.39,28.5-4.71,42.76-7.03c12.02-1.95,22.84,1.32,32.49,8.57c27.41,20.59,54.67,41.39,81.57,62.98
				c-6.53-2.54-12.97-5.4-19.62-7.56c-13.97-4.54-20.86-1.5-27.43,12.09c-3.11,6.43-5.61,13.19-8.8,20.77
				c13.5,4.62,26.18,8.97,38.86,13.31c0.01,0.26,0.02,0.52,0.03,0.78c-9.13,0-18.29-0.4-27.4,0.1c-10.71,0.6-19.89,4.05-27.33,13.48
				c-4.55,5.76-12.31,8.76-19.49,11.96c13.63-14.67,17.87-33.41,23.7-51.53c3.91-12.16,9.52-23.72,15.12-37.35
				c-9.96-5.53-21.21-11.99-32.66-18.04c-5.29-2.79-6.13,2.65-6.64,5.62c-1.98,11.48-3.8,23.05-4.77,34.66
				c-1.93,23.01-3.27,46.06-4.93,70.37c-3.85-15.08,0.95-82.05,8.69-123.35c16.11,11.17,31.53,21.85,47.17,32.7
				c-10.94,16.33-16.9,33.94-20.73,52.5c11.61-16.4,10.43-40.7,30.25-51.63c-12.83-10.27-25.07-20.58-37.82-30.14
				c-13.59-10.19-28.04-17.77-45.86-14.04c-21.69,4.54-43.57,8.12-65.22,12.86c-6.3,1.38-12.08,5.32-17.65,9.54
				c4.72-1.48,9.62-2.51,14.12-4.53c19.52-8.73,40.44-9.94,61.06-12.77c5.43-0.75,10.93-1.31,16.4-1.32
				c7.69-0.01,10.52,2.87,9.98,10.86c-2.28,33.44-4.97,66.85-7.19,100.3c-0.41,6.25-3.43,9.04-8.63,9.63
				c-19.77,2.26-39.53,5.25-59.37,6.08c-18.57,0.78-37.23-0.82-56.44-1.38c-3.21,6.58-0.14,11.75,6.84,13.79
				c10.47,3.07,21.18,6.71,31.9,7.18c28.96,1.26,57.68-1.27,85.61-12.32c0.28,2.15,0.53,4.11,0.95,7.28
				c-1.35-1.84-2.06-2.79-3.57-4.85c-0.93,5.49-1.68,9.88-2.43,14.26c-0.37,0.02-0.75,0.04-1.12,0.06c0-3.49,0-6.97,0-11.42
				c-11.71,2.63-22.68,4.63-33.31,7.84c-2.37,0.72-3.41,5.83-5.33,8.72c-1.42,2.13-3.1,5.41-4.97,5.66
				c-17.6,2.34-35.27,3.97-52.61-1.84c-1.8-0.6-4.64-2.59-4.57-3.8c0.62-11.77-8.21-13.2-17.22-16.86c0,10.18-0.41,19.79,0.13,29.33
				c0.45,7.95,5.15,12.36,12.8,13.95c30.89,6.41,62.01,5.85,93.18,3.7c6.82-0.47,13.61-1.5,20.42-2.28
				C156.13,306.68,156.31,307.5,156.49,308.32z"/>
		</g>
	</g>
	<path fill="#000060" stroke="#6666A0" stroke-miterlimit="10" d="M196.9,256.52c-7.3,0-12.84,0.07-16.63,0.21
		c0.05,2.21,0.22,6.11,0.5,11.68c0.24,4.95,0.36,8.87,0.36,11.75c0,2.4-0.04,6.02-0.11,10.85c-0.07,4.83-0.11,8.45-0.11,10.85h-5.4
		c0-2.4,0.04-6,0.11-10.8c0.07-4.8,0.11-8.4,0.11-10.8c0-2.88-0.12-6.74-0.36-11.59c-0.29-5.66-0.46-9.53-0.5-11.59
		c-4.7,0.29-9.26,0.72-13.68,1.29l-0.79-5.38c8.83-1.26,21-1.89,36.5-1.89V256.52z"/>
	<path fill="#070029" stroke="#9C9CC7" stroke-miterlimit="10" d="M227.29,297.05l-2.83,4.61c-7.35-4.46-13.72-9.72-19.13-15.77
		c0.29,4.9,0.43,10.01,0.43,15.34h-5.4c0-3.36-0.12-8.41-0.36-15.16c-0.24-6.74-0.36-11.82-0.36-15.23c0-2.06,0.05-5.17,0.14-9.32
		c0.1-4.15,0.14-7.26,0.14-9.32h5.4v1.15h1.66c4.18-0.1,7.75,0.67,10.73,2.3c3.6,2.02,5.4,4.97,5.4,8.86c0,3.7-1.63,7.13-4.9,10.29
		c-2.74,2.69-6.07,4.73-10.01,6.12C213.15,286.93,219.51,292.3,227.29,297.05z M217.71,264.94c0-2.4-1.34-4.13-4.01-5.18
		c-1.96-0.77-4.32-1.1-7.09-1.01h-1.29c-0.19,7.25-0.29,11.64-0.29,13.18v4.39c3.98-1.97,6.65-3.43,7.99-4.39
		C216.15,269.72,217.71,267.39,217.71,264.94z"/>
	<path fill="#070029" stroke="#9C9CC7" stroke-miterlimit="10" d="M263.36,300.44l-5.11,1.8c-2.16-5.95-4.03-11.81-5.62-17.57
		c-1.44,0-3.84-0.02-7.2-0.07c-3.22,0-5.62,0-7.2,0c-0.48,1.49-1.1,4.37-1.87,8.64c-0.62,3.7-1.34,6.58-2.16,8.64l-5.04-2.02
		c0.91-2.3,1.8-5.71,2.66-10.22c0.96-4.75,1.8-8.18,2.52-10.3c0.29-0.82,1.87-4.51,4.75-11.09c1.97-4.46,3.17-8.3,3.6-11.52
		l0.86-7.13c1.68,2.5,4.27,7.56,7.78,15.19c0.82,1.49,1.92,3.79,3.31,6.91c0.96,2.93,2.38,7.73,4.25,14.4
		C260.67,292.3,262.16,297.08,263.36,300.44z M251.19,279.27c-0.38-1.34-0.96-3.34-1.73-5.98c-0.34-0.96-0.94-2.26-1.8-3.89
		c-0.86-1.63-1.44-2.83-1.73-3.6c-0.62,1.79-1.56,4.03-2.81,6.73c-1.63,3.62-2.62,5.86-2.95,6.73H251.19z"/>
	<path fill="#070029" stroke="#9C9CC7" stroke-miterlimit="10" d="M299.21,254.5v39.24c0,1.68-0.34,3.6-1.01,5.76
		c-0.67,1.83-1.35,3.67-2.02,5.54c-1.06-2.69-2.7-5.5-4.91-8.42c-2.02-2.59-3.99-5.16-5.92-7.7c-1.92-2.54-4.21-5.9-6.86-10.08
		c-3.66-5.71-5.85-9.1-6.57-10.15c-0.05,3.89-0.1,7.94-0.14,12.17c-0.05,6.34-0.07,13.56-0.07,21.67h-5.33
		c0-5.9,0.07-14.75,0.22-26.53c0.14-11.78,0.22-20.63,0.22-26.53c2.3,4.8,6.05,10.94,11.23,18.43c3.36,5.28,8.66,13.03,15.91,23.26
		c-0.24-3.55-0.36-7.54-0.36-11.95c0-2.74,0.06-6.85,0.18-12.35c0.12-5.5,0.18-9.61,0.18-12.35H299.21z"/>
	<path fill="#070029" stroke="#9C9CC7" stroke-miterlimit="10" d="M334.49,253.86l-2.3,4.9c-2.11-1.06-4.15-1.73-6.12-2.02
		c-1.3-0.24-3.46-0.36-6.48-0.36c-2.35,0-4.9,0.72-7.63,2.16c-3.17,1.63-4.75,3.5-4.75,5.62c0,1.87,1.78,4.03,5.33,6.48
		c2.59,1.73,5.18,3.46,7.78,5.18c6.62,6.05,9.94,11.78,9.94,17.21c0,2.98-1.8,5.38-5.4,7.2c-2.93,1.54-6.05,2.3-9.36,2.3
		c-4.27,0-8.45-1.8-12.53-5.4l3.6-4.1c3.02,2.74,6,4.1,8.93,4.1c1.49,0,3.29-0.34,5.4-1.01c2.64-0.87,3.96-1.88,3.96-3.03
		c0-2.31-1.39-5.19-4.18-8.65c-2.54-3.22-4.97-5.46-7.27-6.71c-3.84-2.16-6.48-3.89-7.92-5.19c-2.45-2.36-3.67-5.14-3.67-8.37
		c0-3.8,2.09-7.02,6.26-9.66c3.65-2.36,7.49-3.53,11.52-3.53c3.41,0,5.95,0.14,7.63,0.43C329.48,251.79,331.9,252.61,334.49,253.86z
		"/>
	<path fill="#070029" stroke="#9C9CC7" stroke-miterlimit="10" d="M363.15,265.52c0,3.79-1.79,6.79-5.38,9
		c-2.35,1.39-5.93,2.62-10.77,3.67c-4.4,1.01-6.89,1.78-7.46,2.3c0,3.6,0,7.9,0,12.89v8.71h-5.4c0-5.23-0.13-13.07-0.4-23.51
		c-0.26-10.44-0.4-18.28-0.4-23.51l-0.29-0.65l0.29-0.22v-0.94h1.94c2.64-1.1,5.69-1.66,9.14-1.66c4.85,0,9.02,1.08,12.53,3.24
		C361.09,257.41,363.15,260.96,363.15,265.52z M357.75,265.52c0-2.93-1.63-5.16-4.9-6.7c-2.54-1.2-5.47-1.8-8.78-1.8
		c-2.06,0-3.82,0.24-5.26,0.72c0,3.79,0.14,9.38,0.43,16.78c3.65-0.86,7.3-1.73,10.94-2.59
		C355.23,270.39,357.75,268.25,357.75,265.52z"/>
	<path fill="#070029" stroke="#9C9CC7" stroke-miterlimit="10" d="M401.24,278.84c0,6.96-1.27,12.48-3.82,16.56
		c-3.07,4.94-7.9,7.42-14.47,7.42c-4.7,0-8.74-1.92-12.1-5.76c-3.31-3.65-4.97-7.85-4.97-12.6c0-5.71,1.75-11.57,5.26-17.57
		c3.7-6.34,8.09-10.44,13.18-12.31c1.3-0.33,3.14-0.98,5.54-1.94l2.16,1.22c2.06,1.2,3.38,2.21,3.96,3.02
		c0.43,0.58,1.03,2.09,1.8,4.54C400.08,268.95,401.24,274.76,401.24,278.84z M395.84,278.88c0-3.27-0.53-7.12-1.58-11.54
		c-1.44-5.82-3.22-8.78-5.33-8.87c-1.39,0.58-3.38,1.56-5.98,2.96c-3.26,2.45-6.02,5.89-8.28,10.31c-2.26,4.42-3.38,8.68-3.38,12.77
		c0,3.27,1.13,6.2,3.38,8.8c2.3,2.74,5.06,4.11,8.28,4.11C391.54,297.42,395.84,291.24,395.84,278.88z"/>
	<path fill="#070029" stroke="#9C9CC7" stroke-miterlimit="10" d="M433.06,297.05l-2.83,4.61c-7.35-4.46-13.72-9.72-19.13-15.77
		c0.29,4.9,0.43,10.01,0.43,15.34h-5.4c0-3.36-0.12-8.41-0.36-15.16c-0.24-6.74-0.36-11.82-0.36-15.23c0-2.06,0.05-5.17,0.14-9.32
		c0.1-4.15,0.14-7.26,0.14-9.32h5.4v1.15h1.66c4.18-0.1,7.75,0.67,10.73,2.3c3.6,2.02,5.4,4.97,5.4,8.86c0,3.7-1.63,7.13-4.9,10.29
		c-2.74,2.69-6.07,4.73-10.01,6.12C418.92,286.93,425.28,292.3,433.06,297.05z M423.48,264.94c0-2.4-1.34-4.13-4.01-5.18
		c-1.96-0.77-4.32-1.1-7.09-1.01h-1.29c-0.19,7.25-0.29,11.64-0.29,13.18v4.39c3.98-1.97,6.65-3.43,7.99-4.39
		C421.92,269.72,423.48,267.39,423.48,264.94z"/>
	<path fill="#070029" stroke="#9C9CC7" stroke-miterlimit="10" d="M470.86,256.52c-7.3,0-12.84,0.07-16.63,0.21
		c0.05,2.21,0.22,6.11,0.5,11.68c0.24,4.95,0.36,8.87,0.36,11.75c0,2.4-0.04,6.02-0.11,10.85c-0.07,4.83-0.11,8.45-0.11,10.85h-5.4
		c0-2.4,0.04-6,0.11-10.8c0.07-4.8,0.11-8.4,0.11-10.8c0-2.88-0.12-6.74-0.36-11.59c-0.29-5.66-0.46-9.53-0.5-11.59
		c-4.71,0.29-9.26,0.72-13.68,1.29l-0.79-5.38c8.83-1.26,21-1.89,36.5-1.89V256.52z"/>
	<path fill="#070029" stroke="#9C9CC7" stroke-miterlimit="10" d="M502.47,255.8c-5.71,0.14-14.28,0.55-25.7,1.22
		c-0.05,1.63-0.1,4.42-0.14,8.35c-0.05,3.65-0.07,6.43-0.07,8.35c1.01,0.05,2.02,0.07,3.02,0.07c5.76,0,11.3-0.82,16.63-2.45
		l1.58,5.2c-6.38,1.97-13.46,2.84-21.24,2.6c0,0.96-0.05,3.85-0.14,8.67c-0.05,3.51-0.07,6.38-0.07,8.59h3.38
		c7.01,0.05,12.72-0.7,17.14-2.23l1.8,5.11c-3.17,1.1-6.74,1.83-10.73,2.16c-2.11,0.14-5.76,0.22-10.94,0.22
		c-2.93,0-4.9,0.17-5.9,0.5c-0.29-1.63-0.43-4.03-0.43-7.2c0-4.7,0.12-11.78,0.36-21.24c0.24-9.46,0.36-16.56,0.36-21.31h0.07v-0.22
		c4.03-0.58,9.14-0.98,15.34-1.22c9.5-0.33,14.62-0.53,15.34-0.58L502.47,255.8z"/>
	<path fill="#070029" stroke="#9C9CC7" stroke-miterlimit="10" d="M533.71,253.86l-2.3,4.9c-2.11-1.06-4.15-1.73-6.12-2.02
		c-1.3-0.24-3.46-0.36-6.48-0.36c-2.35,0-4.9,0.72-7.63,2.16c-3.17,1.63-4.75,3.5-4.75,5.62c0,1.87,1.78,4.03,5.33,6.48
		c2.59,1.73,5.18,3.46,7.78,5.18c6.62,6.05,9.94,11.78,9.94,17.21c0,2.98-1.8,5.38-5.4,7.2c-2.93,1.54-6.05,2.3-9.36,2.3
		c-4.27,0-8.45-1.8-12.53-5.4l3.6-4.1c3.02,2.74,6,4.1,8.93,4.1c1.49,0,3.29-0.34,5.4-1.01c2.64-0.87,3.96-1.88,3.96-3.03
		c0-2.31-1.39-5.19-4.18-8.65c-2.54-3.22-4.97-5.46-7.27-6.71c-3.84-2.16-6.48-3.89-7.92-5.19c-2.45-2.36-3.67-5.14-3.67-8.37
		c0-3.8,2.09-7.02,6.26-9.66c3.65-2.36,7.49-3.53,11.52-3.53c3.41,0,5.95,0.14,7.63,0.43C528.7,251.79,531.12,252.61,533.71,253.86z
		"/>
	<g>
		<linearGradient id="SVGID_1_" gradientUnits="userSpaceOnUse" x1="252.9473" y1="206.3865" x2="278.291" y2="206.3865">
			<stop  offset="0" style="stop-color:#FFFFFF"/>
			<stop  offset="0.8323" style="stop-color:#000080"/>
		</linearGradient>
		<path fill="url(#SVGID_1_)" stroke="#00078B" stroke-miterlimit="10" d="M256.33,198.71c0.44,0.09,0.86,0.13,1.28,0.13
			c2.35,0,4.15-1.28,5.41-3.83c-1.14,1.38-3.12,2.07-5.94,2.07c-0.56,0-1.14-0.03-1.76-0.09l1.1-4.22c2.64,0.09,4.68-0.31,6.12-1.19
			c2.46-1.76,4.91-2.64,7.35-2.64c3.08,0,5.54,1.34,7.39,4l-1.36,5.19c-0.35-0.56-0.75-1.04-1.19-1.45c-1-1-2.05-1.51-3.17-1.54
			c-0.35-0.09-0.72-0.13-1.1-0.13c-3.29,0-6.09,2.98-8.4,8.93c-0.94,2.44-1.41,4.84-1.41,7.22c0,3.34,0.75,5.41,2.25,6.2
			c0.26,0.15,0.69,0.29,1.28,0.44c1.38,0,2.73-0.28,4.05-0.83l2.78-10.65h-4.55l1.14-4.58h4.58h0.04h6.07l-5.46,20.9h-5.15
			c-1.67,0.79-3.31,1.19-4.93,1.19c-1.53,0-2.93-0.35-4.22-1.06c-1.79-1-3.17-2.54-4.14-4.62c-0.97-2.08-1.45-4.46-1.45-7.13
			C252.95,206.78,254.08,202.67,256.33,198.71z"/>
		<path fill="#000080" d="M293.43,202.14l-1.37,5.68c-0.77-0.44-1.49-0.66-2.16-0.66c-1.56,0-2.78,1.07-3.66,3.21l-3.29,12.24h-6.06
			l5.59-20.77h6.06l-0.34,1.32c1.44-0.88,2.74-1.32,3.92-1.32C292.63,201.83,293.08,201.94,293.43,202.14z"/>
		<path fill="#000080" d="M298.26,217.76c0.17,0.15,0.42,0.22,0.74,0.22c0.53,0,1.15-0.18,1.88-0.53c0.88-0.44,1.59-1.32,2.14-2.65
			l3.4-12.97h6.09l-5.41,20.94h-6.14l0.37-1.28c-1.76,0.94-3.55,1.41-5.37,1.41c-0.38,0-0.7-0.02-0.97-0.04
			c-2.41-0.62-3.61-2.38-3.61-5.28c0-0.5,0.04-0.97,0.13-1.41l3.78-14.34h6.05l-3.78,14.34c-0.02,0.15-0.03,0.29-0.03,0.44
			C297.56,217.11,297.8,217.5,298.26,217.76z"/>
		<path fill="#000080" d="M317.41,220.28l-3.02,11.43h-6.09l7.79-29.92h6.09l-0.5,1.94c1.58-1.29,3.15-1.94,4.71-1.94
			c0.67,0,1.3,0.12,1.89,0.35c2.32,1,3.48,3.27,3.48,6.82c0,2-0.44,4-1.32,6.03c-0.96,2.29-2.27,4.14-3.92,5.57
			c-1.65,1.42-3.3,2.13-4.93,2.13C319.79,222.69,318.41,221.89,317.41,220.28z M324.36,205.97c-0.7,0-1.47,0.46-2.29,1.36
			c-0.82,0.91-1.5,2.06-2.02,3.45c-0.53,1.39-0.79,2.68-0.79,3.85c0,1.97,0.57,2.95,1.72,2.95c0.7,0,1.47-0.45,2.29-1.36
			c0.82-0.91,1.51-2.08,2.07-3.52c0.5-1.35,0.75-2.61,0.75-3.78C326.08,206.95,325.5,205.97,324.36,205.97z"/>
		<path fill="#000080" d="M336.19,222.38c-2.76-1.35-4.14-3.93-4.14-7.74c0-2.05,0.48-4.06,1.45-6.03c1.03-2.14,2.42-3.85,4.18-5.13
			c1.76-1.28,3.55-1.91,5.37-1.91c1.06,0,2.04,0.24,2.95,0.7c2.76,1.32,4.14,3.89,4.14,7.7c0,2.05-0.48,4.06-1.45,6.03
			c-1.03,2.14-2.42,3.85-4.18,5.13s-3.55,1.91-5.37,1.91C338.09,223.04,337.1,222.82,336.19,222.38z M343.1,206.32
			c-0.67,0-1.42,0.42-2.24,1.25s-1.53,1.96-2.11,3.37c-0.62,1.5-0.92,2.92-0.92,4.27c0,1.94,0.56,2.9,1.67,2.9
			c0.67,0,1.42-0.41,2.24-1.23c0.82-0.82,1.53-1.96,2.13-3.41c0.6-1.45,0.9-2.85,0.9-4.2C344.77,207.3,344.22,206.32,343.1,206.32z"
			/>
		<path fill="#000080" d="M357.24,202.09c-1.66,0.92-3.4,1.59-5.2,2.02l-0.82-3.1c1.55-0.37,3.02-0.96,4.43-1.76L357.24,202.09z
			 M357.41,222.21c-1.63,0.15-3.28,0.51-4.94,1.08l-1.03-3.08c1.89-0.64,3.8-1.04,5.72-1.22L357.41,222.21z"/>
	</g>
	<g>
	</g>
	<g>
	</g>
	<g>
	</g>
	<g>
	</g>
	<g>
	</g>
	<g>
	</g>
	<g>
	</g>
	<g>
	</g>
	<g>
	</g>
	<g>
	</g>
	<g>
	</g>
	<g>
	</g>
	<g>
	</g>
	<g>
	</g>
	<g>
	</g>
</g>
</svg>
